<svg width="247" height="73" viewBox="0 0 247 73" fill="none" xmlns="http://www.w3.org/2000/svg">
<g clip-path="url(#clip0_21_144)">
<path d="M214.115 72.2792H32.6453C15.1224 72.2792 0.720093 57.8713 0.720093 40.3417C0.720093 22.8121 15.1224 8.40419 32.6453 8.40419H122.66C123.38 8.40419 123.86 8.88446 123.86 9.60485C123.86 10.3252 123.38 10.8055 122.66 10.8055H32.6453C16.3226 10.5654 2.88044 23.7726 2.88044 40.3417C2.88044 56.6706 16.3226 70.118 32.6453 70.118H214.115C230.437 70.118 243.879 56.6706 243.879 40.3417C243.879 24.0127 230.437 10.5654 214.115 10.5654H207.634C206.913 10.5654 206.433 10.0851 206.433 9.36472C206.433 8.64433 206.913 8.16406 207.634 8.16406H214.115C231.637 8.16406 246.04 22.572 246.04 40.1016C246.28 57.8713 231.878 72.2792 214.115 72.2792Z" fill="white"/>
<path d="M214.115 72.2792H32.6453C15.1224 72.2792 0.720093 57.8713 0.720093 40.3417C0.720093 22.8121 15.1224 8.40419 32.6453 8.40419H122.66C123.38 8.40419 123.86 8.88446 123.86 9.60485C123.86 10.3252 123.38 10.8055 122.66 10.8055H32.6453C16.3226 10.5654 2.88044 23.7726 2.88044 40.3417C2.88044 56.6706 16.3226 70.118 32.6453 70.118H214.115C230.437 70.118 243.879 56.6706 243.879 40.3417C243.879 24.0127 230.437 10.5654 214.115 10.5654H207.634C206.913 10.5654 206.433 10.0851 206.433 9.36472C206.433 8.64433 206.913 8.16406 207.634 8.16406H214.115C231.637 8.16406 246.04 22.572 246.04 40.1016C246.28 57.8713 231.878 72.2792 214.115 72.2792Z" stroke="white" stroke-width="0.5669" stroke-miterlimit="10"/>
<path d="M26.8843 29.7765V55.7107H16.5626V25.4541H44.1671V34.5791H27.6044L26.8843 29.7765Z" fill="white"/>
<path d="M74.172 46.3455V55.7107H47.0476V25.4541H74.172V34.8192H57.3693L56.8892 30.2567V36.9804H71.7716V44.4245H56.8892V50.6679L57.3693 46.3455H74.172Z" fill="white"/>
<path d="M87.3741 25.4541V34.5791L81.6132 35.2995H101.536L96.2555 34.5791V25.4541H106.817V55.7107H96.2555V46.5857L102.016 45.8653H81.6132L87.3741 46.5857V55.7107H76.8124V25.4541H87.3741Z" fill="white"/>
<path d="M136.582 46.3455V55.7107H109.458V25.4541H136.582V34.8192H120.019L119.299 30.2567V36.9804H134.422V44.4245H119.299V50.6679L120.019 46.3455H136.582Z" fill="white"/>
<path d="M156.745 50.6679V44.4245H141.863V36.7403H156.745V30.0166L156.025 34.8192H139.463V25.4541H166.587V39.862L163.706 40.5824L166.587 41.3028V55.7107H139.463V46.3455H156.025L156.745 50.6679Z" fill="white"/>
<path d="M175.228 44.9048L188.911 25.4541H199.232V55.7107H188.911V43.464L193.231 36.26L179.549 55.7107H169.227V25.4541H179.549V37.7008L175.228 44.9048Z" fill="white"/>
<path d="M211.954 51.1482L212.674 46.5857H229.477V55.7107H202.113V25.4541H229.477V34.5791H212.674L211.954 29.5363V51.1482Z" fill="white"/>
<path d="M59.7696 19.2109H65.7706L63.1302 24.4938H56.8892L59.7696 19.2109Z" fill="white"/>
<path d="M148.344 18.4903H144.983V13.6877H130.581C128.181 13.6877 126.5 11.7667 126.5 9.60547V0.480469H129.861V10.3259H144.023C146.904 10.3259 148.344 12.487 148.344 14.6482V18.4903ZM144.983 8.88507H141.623V0.480469H144.983V8.88507Z" fill="white"/>
<path d="M172.108 13.6875H168.747V3.60197L163.706 12.2467C163.226 13.2072 162.026 13.9276 160.826 13.9276C159.626 13.9276 158.426 13.2072 157.946 12.2467L152.905 3.60197V13.6875H149.544V3.60197C149.544 1.68092 150.984 0.240132 152.905 0.240132C154.345 0.240132 155.305 0.960526 156.025 2.16118L160.826 10.3257L165.627 1.92105C166.347 0.960526 167.547 0 168.747 0C170.668 0 172.108 1.44079 172.108 3.36184V13.6875Z" fill="white"/>
<path d="M177.149 0.480263V10.5658L186.51 1.20066C187.23 0.480263 187.95 0 188.911 0C190.831 0 192.271 1.44079 192.271 3.36184V13.4474H188.911V3.60197L179.549 12.9671C178.829 13.6875 178.109 13.9276 177.149 13.9276C175.228 13.9276 173.788 12.4868 173.788 10.5658V0.480263H177.149Z" fill="white"/>
<path d="M211.234 3.84231H192.991V0.480469H211.234V3.84231ZM203.793 13.6877H200.432V5.04297H203.793V13.6877Z" fill="white"/>
</g>
<defs>
<clipPath id="clip0_21_144">
<rect width="247" height="73" fill="white"/>
</clipPath>
</defs>
</svg>
