<svg width="32" height="32" viewBox="0 0 32 32" fill="none" xmlns="http://www.w3.org/2000/svg">
<path d="M26 9C26 10.1046 25.1046 11 24 11C22.8954 11 22 10.1046 22 9C22 7.89543 22.8954 7 24 7C25.1046 7 26 7.89543 26 9Z" fill="white"/>
<path d="M30.9707 9.82008C30.9004 8.22602 30.6427 7.13022 30.2733 6.18058C29.8924 5.17263 29.3064 4.27023 28.5386 3.52002C27.7884 2.75816 26.88 2.16613 25.8837 1.79117C24.9287 1.42196 23.8385 1.16409 22.2445 1.09389C20.6385 1.01758 20.1287 1 16.0557 1C11.9826 1 11.4728 1.01758 9.87282 1.08791C8.27881 1.15823 7.18296 1.41621 6.23361 1.78519C5.22537 2.16613 4.32296 2.75218 3.57276 3.52002C2.81089 4.27017 2.21915 5.17855 1.8439 6.17484C1.47469 7.13022 1.21689 8.22016 1.14662 9.8141C1.07037 11.4201 1.05273 11.9299 1.05273 16.0029C1.05273 20.076 1.07037 20.5859 1.14064 22.1858C1.21097 23.7798 1.46895 24.8756 1.83822 25.8253C2.21915 26.8332 2.81089 27.7356 3.57276 28.4858C4.32296 29.2477 5.23134 29.8397 6.22763 30.2147C7.1829 30.5839 8.27284 30.8418 9.86713 30.912C11.4668 30.9825 11.9769 30.9999 16.05 30.9999C20.123 30.9999 20.6328 30.9825 22.2328 30.912C23.8268 30.8417 24.9227 30.584 25.872 30.2147C26.8691 29.8292 27.7746 29.2396 28.5306 28.4837C29.2865 27.7278 29.8762 26.8223 30.2617 25.8253C30.6307 24.87 30.8888 23.7798 30.959 22.1858C31.0294 20.5859 31.0469 20.076 31.0469 16.0029C31.0469 11.9299 31.041 11.42 30.9707 9.82008ZM28.2692 22.0686C28.2046 23.5337 27.9585 24.3249 27.7534 24.8523C27.2493 26.1592 26.212 27.1965 24.9051 27.7006C24.3776 27.9058 23.5807 28.1518 22.1213 28.2161C20.539 28.2867 20.0644 28.304 16.0616 28.304C12.0588 28.304 11.5783 28.2867 10.0017 28.2161C8.53656 28.1518 7.74539 27.9058 7.21794 27.7006C6.5676 27.4602 5.97563 27.0793 5.49507 26.5812C4.99692 26.0947 4.61599 25.5087 4.37559 24.8583C4.17047 24.3308 3.92439 23.5337 3.8601 22.0745C3.78954 20.4922 3.77219 20.0174 3.77219 16.0146C3.77219 12.0118 3.78954 11.5313 3.8601 9.95493C3.92439 8.4898 4.17047 7.69863 4.37559 7.17119C4.61599 6.52055 4.99692 5.9287 5.50104 5.44802C5.98723 4.94987 6.57329 4.56894 7.22392 4.32883C7.75137 4.12372 8.54851 3.87757 10.0077 3.81305C11.59 3.74272 12.0648 3.72514 16.0673 3.72514C20.0761 3.72514 20.5506 3.74272 22.1273 3.81305C23.5924 3.87763 24.3836 4.12366 24.911 4.32877C25.5614 4.56894 26.1534 4.94987 26.6339 5.44802C27.132 5.9345 27.513 6.52055 27.7534 7.17119C27.9585 7.69863 28.2046 8.49549 28.2691 9.95493C28.3394 11.5373 28.357 12.0118 28.357 16.0146C28.357 20.0174 28.3395 20.4862 28.2692 22.0686Z" fill="white" stroke="white"/>
<path d="M16 9C12.1355 9 9 12.1353 9 16C9 19.8647 12.1355 23 16 23C19.8646 23 23 19.8647 23 16C23 12.1353 19.8646 9 16 9ZM16 20.5407C13.4929 20.5407 11.4592 18.5073 11.4592 16C11.4592 13.4927 13.4929 11.4593 15.9999 11.4593C18.5073 11.4593 20.5407 13.4927 20.5407 16C20.5407 18.5073 18.5072 20.5407 16 20.5407Z" fill="white" stroke="white" stroke-width="0.5"/>
</svg>
