<svg width="33" height="27" viewBox="0 0 33 27" fill="none" xmlns="http://www.w3.org/2000/svg">
<path fill-rule="evenodd" clip-rule="evenodd" d="M2.26739 11.6232C11.1278 7.81329 17.0353 5.30132 19.99 4.08734C28.4292 0.622381 30.1833 0.0199889 31.3259 0.000189109C31.5776 -0.00401084 32.1398 0.0601888 32.5038 0.349385C32.8108 0.595382 32.8959 0.928376 32.936 1.16177C32.9978 1.55223 33.0149 1.94832 32.987 2.34256C32.5294 7.0861 30.551 18.5999 29.5439 23.9111C29.1184 26.1586 28.2791 26.911 27.4671 26.9866C25.7045 27.1468 24.3625 25.8353 22.6527 24.7289C19.9785 22.9985 18.4675 21.9209 15.871 20.2319C12.8703 18.2802 14.8159 17.2074 16.5256 15.4542C16.9729 14.9952 24.749 8.01429 24.8991 7.38009C24.918 7.30089 24.9356 7.0057 24.7575 6.8497C24.5794 6.6937 24.3181 6.7471 24.1285 6.7897C23.8602 6.8497 19.5874 9.63766 11.3101 15.1536C10.097 15.9756 8.99849 16.3756 8.01468 16.3536C6.92916 16.3302 4.842 15.7476 3.29031 15.2496C1.38731 14.6388 -0.125484 14.316 0.00823041 13.2792C0.0758979 12.74 0.828952 12.188 2.26739 11.6232Z" fill="white"/>
</svg>
