<svg width="39" height="24" viewBox="0 0 39 24" fill="none" xmlns="http://www.w3.org/2000/svg">
<path d="M21.2285 23.976C7.91199 23.976 0.316479 14.985 0 0H6.67041C6.88951 10.981 11.8071 15.5844 15.7022 16.5914V0.0239766H21.9831V9.49451C25.8296 9.08692 29.8708 4.77123 31.2341 0.0239766H37.515C37.0103 2.49262 35.9929 4.83186 34.5266 6.89484C33.0603 8.95782 31.1768 10.7 28.9944 12.012C31.4275 13.2005 33.5772 14.8834 35.3019 16.9498C37.0265 19.0161 38.2869 21.419 39 24H32.0618C31.4252 21.7539 30.129 19.7432 28.3358 18.2203C26.5427 16.6974 24.3326 15.7304 21.9831 15.4406V24L21.2285 23.976Z" fill="white"/>
</svg>
