<svg width="247" height="73" viewBox="0 0 247 73" fill="none" xmlns="http://www.w3.org/2000/svg">
<g clip-path="url(#clip0_1_28)">
<path d="M214.115 72.2796H32.6453C15.1225 72.2796 0.720123 57.8717 0.720123 40.3421C0.720123 22.8125 15.1225 8.40461 32.6453 8.40461H122.66C123.38 8.40461 123.86 8.88487 123.86 9.60526C123.86 10.3257 123.38 10.8059 122.66 10.8059H32.6453C16.3226 10.5658 2.88047 23.773 2.88047 40.3421C2.88047 56.6711 16.3226 70.1184 32.6453 70.1184H214.115C230.437 70.1184 243.879 56.6711 243.879 40.3421C243.879 24.0132 230.437 10.5658 214.115 10.5658H207.634C206.914 10.5658 206.433 10.0855 206.433 9.36513C206.433 8.64474 206.914 8.16447 207.634 8.16447H214.115C231.637 8.16447 246.04 22.5724 246.04 40.102C246.28 57.8717 231.878 72.2796 214.115 72.2796Z" fill="white"/>
<path d="M214.115 72.2796H32.6453C15.1225 72.2796 0.720123 57.8717 0.720123 40.3421C0.720123 22.8125 15.1225 8.40461 32.6453 8.40461H122.66C123.38 8.40461 123.86 8.88487 123.86 9.60526C123.86 10.3257 123.38 10.8059 122.66 10.8059H32.6453C16.3226 10.5658 2.88047 23.773 2.88047 40.3421C2.88047 56.6711 16.3226 70.1184 32.6453 70.1184H214.115C230.437 70.1184 243.879 56.6711 243.879 40.3421C243.879 24.0132 230.437 10.5658 214.115 10.5658H207.634C206.914 10.5658 206.433 10.0855 206.433 9.36513C206.433 8.64474 206.914 8.16447 207.634 8.16447H214.115C231.638 8.16447 246.04 22.5724 246.04 40.102C246.28 57.8717 231.878 72.2796 214.115 72.2796Z" stroke="white" stroke-width="0.5669" stroke-miterlimit="10"/>
<path d="M26.8844 29.7763V55.7105H16.5627V25.4539H44.1672V34.5789H27.6045L26.8844 29.7763Z" fill="white"/>
<path d="M74.172 46.3454V55.7105H47.0476V25.4539H74.172V34.8191H57.3693L56.8892 30.2566V36.9803H71.7716V44.4243H56.8892V50.6678L57.3693 46.3454H74.172Z" fill="white"/>
<path d="M87.3742 25.4539V34.5789L81.6132 35.2993H101.536L96.2556 34.5789V25.4539H106.817V55.7105H96.2556V46.5855L102.017 45.8651H81.6132L87.3742 46.5855V55.7105H76.8124V25.4539H87.3742Z" fill="white"/>
<path d="M136.582 46.3454V55.7105H109.458V25.4539H136.582V34.8191H120.019L119.299 30.2566V36.9803H134.422V44.4243H119.299V50.6678L120.019 46.3454H136.582Z" fill="#FF8079"/>
<path d="M156.745 50.6678V44.4243H141.863V36.7401H156.745V30.0164L156.025 34.8191H139.463V25.4539H166.587V39.8618L163.707 40.5822L166.587 41.3026V55.7105H139.463V46.3454H156.025L156.745 50.6678Z" fill="#92B7FF"/>
<path d="M175.228 44.9046L188.911 25.4539H199.232V55.7105H188.911V43.4638L193.231 36.2599L179.549 55.7105H169.227V25.4539H179.549V37.7007L175.228 44.9046Z" fill="white"/>
<path d="M211.954 51.148L212.674 46.5855H229.477V55.7105H202.113V25.4539H229.477V34.5789H212.674L211.954 29.5362V51.148Z" fill="white"/>
<path d="M59.7697 19.2105H65.7707L63.1302 24.4934H56.8892L59.7697 19.2105Z" fill="white"/>
<path d="M148.344 18.4901H144.983V13.6875H130.581C128.181 13.6875 126.5 11.7665 126.5 9.60527V0.48027H129.861V10.3257H144.023C146.904 10.3257 148.344 12.4869 148.344 14.648V18.4901ZM144.983 8.88488H141.623V0.48027H144.983V8.88488Z" fill="white"/>
<path d="M172.108 13.6875H168.747V3.60197L163.706 12.2467C163.226 13.2072 162.026 13.9276 160.826 13.9276C159.626 13.9276 158.426 13.2072 157.946 12.2467L152.905 3.60197V13.6875H149.544V3.60197C149.544 1.68092 150.984 0.240132 152.905 0.240132C154.345 0.240132 155.305 0.960526 156.025 2.16118L160.826 10.3257L165.627 1.92105C166.347 0.960526 167.547 0 168.747 0C170.668 0 172.108 1.44079 172.108 3.36184V13.6875Z" fill="white"/>
<path d="M177.149 0.480263V10.5658L186.51 1.20066C187.23 0.480263 187.95 0 188.911 0C190.831 0 192.271 1.44079 192.271 3.36184V13.4474H188.911V3.60197L179.549 12.9671C178.829 13.6875 178.109 13.9276 177.149 13.9276C175.228 13.9276 173.788 12.4868 173.788 10.5658V0.480263H177.149Z" fill="white"/>
<path d="M211.234 3.84211H192.991V0.48027H211.234V3.84211ZM203.793 13.6875H200.432V5.04277H203.793V13.6875Z" fill="white"/>
</g>
<defs>
<clipPath id="clip0_1_28">
<rect width="247" height="73" fill="white"/>
</clipPath>
</defs>
</svg>
